<svg height="35" viewBox="0 0 512 512" width="35" xmlns="http://www.w3.org/2000/svg"><g id="Flat"><path d="m480 191a8 8 0 0 0 -2.318-5.632l-114-115a8 8 0 0 0 -5.682-2.368h-185a8 8 0 0 0 -5.657 2.343l-112 112a8 8 0 0 0 -2.343 5.657v103.5a8 8 0 0 0 2.246 5.558l56.5 58.5a8 8 0 0 0 5.717 2.442l148.643.681 53.158 76.444a8 8 0 0 0 6.568 3.433h120.168a8 8 0 0 0 7.6-5.515l26-79.558a7.966 7.966 0 0 0 .384-2.485h.016zm-143.6-15.38 117.7 20.4-63.336 55.351zm37.411 79.567h-84.182l30.762-74.429zm-97.664-9.265-46.888-73.522h77.275zm-13.069 9.265h-89.8l41.858-75.18zm-105.908-3.961-76.345-58.177 118.9-18.263zm111.8 19.961-5.387 64-80.9-63.995zm16.056 0h79.974l-85.255 62.644zm178.974-62.572v122.2l-63.088-67.07zm-134-50.344 30.542-68.346 88.141 88.914zm-16.691-1.871h-93.567l-34.127-72.4h160.048zm-110.445 1.72-118.935 18.265 86.685-86.685zm-60.72 101.775-73.144 20.987v-76.728zm2.491 15.931-29.335 60.384-39.3-40.692zm17.877-.185 84.645 66.956-116.906-.536zm225.915-1.81 65.039 69.144-158.818-.236zm-102.8 84.9 155.031.23-112.352 61.139zm154.573 63.827h-82.936l100.878-54.907z" fill="#60d1e0"/><g fill="#d3669a"><circle cx="464" cy="192" r="24"/><circle cx="264" cy="352" r="24"/><circle cx="320" cy="432" r="24"/><circle cx="440" cy="432" r="24"/><circle cx="464" cy="352" r="24"/><circle cx="272" cy="264" r="24"/><circle cx="168" cy="80" r="24"/><circle cx="352" cy="80" r="24"/><circle cx="56" cy="192" r="24"/><circle cx="56" cy="296" r="24"/><circle cx="112" cy="352" r="24"/><circle cx="208" cy="168" r="24"/><circle cx="312" cy="168" r="24"/><circle cx="152" cy="264" r="24"/><circle cx="384" cy="264" r="24"/></g></g></svg>