<?xml version="1.0"?>
<svg xmlns="http://www.w3.org/2000/svg" viewBox="0 0 512 512" width="512" height="512"><g id="Outline"><path d="M474,321.609V222.391a31.994,31.994,0,1,0-25.479-58.386L380.207,95.094A31.993,31.993,0,1,0,321.609,70H198.391a31.993,31.993,0,1,0-59,24.3L70.3,163.385A31.993,31.993,0,1,0,47,222.7V265.3a31.995,31.995,0,1,0,25.665,58.009L84.536,335.6a31.995,31.995,0,1,0,58.411,24.544l90.225.416a32,32,0,0,0,41.8,21.5l20.477,29.445a31.99,31.99,0,1,0,55.382,29.053h58.344a31.995,31.995,0,1,0,48.2-35.41l6.913-21.157A31.993,31.993,0,0,0,474,321.609ZM320,400a31.827,31.827,0,0,0-11.559,2.169l-20.3-29.195a31.955,31.955,0,0,0,6.637-12.224l138.509.2c.063.217.123.436.19.651L343.662,410.48A31.922,31.922,0,0,0,320,400Zm-75.616-73.256-63.083-49.9a31.818,31.818,0,0,0,1.348-3.653h58.7a32.141,32.141,0,0,0,19.856,20.932L258.992,320.4A31.848,31.848,0,0,0,244.384,326.744ZM112,320a31.8,31.8,0,0,0-16.082,4.352L83.805,311.809A31.792,31.792,0,0,0,88,296a32.169,32.169,0,0,0-.206-3.586l37.53-10.766a32.276,32.276,0,0,0,7.568,8l-15.009,30.9A32.049,32.049,0,0,0,112,320ZM76.562,216.494l45.974,35.023A31.826,31.826,0,0,0,120,264c0,.842.043,1.674.107,2.5L82.031,277.423A32.064,32.064,0,0,0,63,264.781V223.219A31.909,31.909,0,0,0,76.562,216.494ZM168,112a32.033,32.033,0,0,0,5.915-.557L188.6,142.578a32.019,32.019,0,0,0-12.244,20.688l-91.9,14.118a32.083,32.083,0,0,0-2.064-3.459l67.538-67.536A31.814,31.814,0,0,0,168,112Zm71.356,62.4h41.288a32.044,32.044,0,0,0,12.008,19.066L276.6,232.335a31.892,31.892,0,0,0-15.4,1.546L232.377,188.7A31.906,31.906,0,0,0,239.356,174.4ZM352,112a31.8,31.8,0,0,0,17.349-5.133L436.9,175.011a31.819,31.819,0,0,0-2.329,4.426L343.7,163.686a31.993,31.993,0,0,0-11.926-20.816L345.837,111.4A31.937,31.937,0,0,0,352,112Zm80.792,232.949-137.63-.2a31.728,31.728,0,0,0-1.182-3.931l70.3-51.648a31.9,31.9,0,0,0,33.962,3.475l39.144,41.615A31.838,31.838,0,0,0,432.792,344.949ZM303.263,257.19a32.05,32.05,0,0,0-11.915-18.656L307.4,199.665A32.124,32.124,0,0,0,312,200a31.8,31.8,0,0,0,12.837-2.7l33.844,47.162a31.869,31.869,0,0,0-5.944,12.725ZM272,280a16,16,0,1,1,16-16A16.019,16.019,0,0,1,272,280Zm-31.263-22.81H183.263a31.946,31.946,0,0,0-7.723-14.839l24.187-43.441a31.929,31.929,0,0,0,19.565-.974L247.971,242.9A31.922,31.922,0,0,0,240.737,257.19ZM132.281,238.826,85.867,203.468a31.805,31.805,0,0,0,2.107-10.437L178.026,179.2a32.093,32.093,0,0,0,7.781,11.824L162.08,233.636a31.888,31.888,0,0,0-29.8,5.19ZM400,264a16,16,0,1,1-16-16A16.019,16.019,0,0,1,400,264Zm2.472-26.1a31.9,31.9,0,0,0-31.157-3.267L337.424,187.4a31.966,31.966,0,0,0,4.391-7.8l90.35,15.659a31.769,31.769,0,0,0,4.265,12.96ZM328,168a16,16,0,1,1-16-16A16.019,16.019,0,0,1,328,168ZM208,184a16,16,0,1,1,16-16A16.019,16.019,0,0,1,208,184Zm-72,80a16,16,0,1,1,16,16A16.019,16.019,0,0,1,136,264Zm141.141,31.582a32.1,32.1,0,0,0,25.508-22.392h50.7a31.737,31.737,0,0,0,1.182,3.285L284.8,327.71a32.033,32.033,0,0,0-9.878-5.789Zm172.168,28-38.975-41.435a31.929,31.929,0,0,0,2.485-32.051l34.946-30.54A31.8,31.8,0,0,0,458,223.428v97.144A31.754,31.754,0,0,0,449.309,323.586ZM480,192a16,16,0,1,1-16-16A16.019,16.019,0,0,1,480,192ZM352,64a16,16,0,1,1-16,16A16.019,16.019,0,0,1,352,64ZM199.428,86H320.572a32.012,32.012,0,0,0,10.836,18.468l-14.275,31.949a31.981,31.981,0,0,0-35.66,21.983H238.527a31.988,31.988,0,0,0-35.182-22.058l-14.949-31.7A32.019,32.019,0,0,0,199.428,86ZM168,64a16,16,0,1,1-16,16A16.019,16.019,0,0,1,168,64ZM40,192a16,16,0,1,1,16,16A16.019,16.019,0,0,1,40,192ZM56,312a16,16,0,1,1,16-16A16.019,16.019,0,0,1,56,312Zm56,56a16,16,0,1,1,16-16A16.019,16.019,0,0,1,112,368Zm20.372-40.659,15.366-31.633A32.212,32.212,0,0,0,152,296a31.827,31.827,0,0,0,19.408-6.582L234.59,339.4a31.826,31.826,0,0,0-1.707,5.159l-89.862-.414A32.056,32.056,0,0,0,132.372,327.341ZM248,352a16,16,0,1,1,16,16A16.019,16.019,0,0,1,248,352Zm72,96a16,16,0,1,1,16-16A16.019,16.019,0,0,1,320,448Zm120,0a16,16,0,1,1,16-16A16.019,16.019,0,0,1,440,448Zm0-48a32.049,32.049,0,0,0-31.117,24.56H351.261l90.719-49.374a32.186,32.186,0,0,0,6.744,4.926L442.2,400.084C441.471,400.034,440.74,400,440,400Zm24-32a16,16,0,1,1,16-16A16.019,16.019,0,0,1,464,368Z" fill="white" /></g></svg>
